<?xml version="1.0" encoding="UTF-8"?>
<svg version="1.1" xmlns="http://www.w3.org/2000/svg" width="65" height="56">
<path d="M0 0 C0.94261185 0.00374634 1.88522369 0.00749268 2.85639954 0.01135254 C4.84264339 0.02476622 6.82883562 0.0525422 8.81469727 0.09375 C11.86328909 0.15625016 14.90981443 0.17571102 17.95898438 0.1875 C19.88934828 0.20583362 21.81969107 0.22658313 23.75 0.25 C25.121847 0.26274963 25.121847 0.26274963 26.52140808 0.27575684 C27.36601089 0.29497192 28.21061371 0.31418701 29.08081055 0.33398438 C30.19736275 0.35446838 30.19736275 0.35446838 31.33647156 0.37536621 C33.17578125 0.65625 33.17578125 0.65625 35.17578125 2.65625 C35.41248949 5.21571679 35.52805006 7.66343663 35.546875 10.2265625 C35.56041771 11.35914993 35.56041771 11.35914993 35.57423401 12.51461792 C35.58875877 14.11680123 35.59762877 15.71904416 35.60131836 17.32128906 C35.61313755 19.75170001 35.66222717 22.1795063 35.71289062 24.609375 C35.86563528 38.60006224 35.86563528 38.60006224 31.93774414 44.14404297 C26.32203859 48.96372984 21.89504431 50.25621098 14.6875 50.1171875 C13.90309036 50.11627106 13.11868073 50.11535461 12.3105011 50.1144104 C10.66584152 50.10840594 9.02119125 50.09275566 7.37670898 50.06787109 C4.85294669 50.03109942 2.33064428 50.02685399 -0.19335938 50.02734375 C-1.79558566 50.01752108 -3.39780201 50.00586779 -5 49.9921875 C-5.7551741 49.98996185 -6.51034821 49.98773621 -7.28840637 49.98544312 C-12.59197661 49.88849214 -12.59197661 49.88849214 -14.82421875 47.65625 C-14.9691986 45.07560871 -15.0109942 42.60681116 -14.94921875 40.03125 C-14.94019531 39.32484375 -14.93117188 38.6184375 -14.921875 37.890625 C-14.89829478 36.14568902 -14.86242336 34.40092705 -14.82421875 32.65625 C-15.99984375 32.718125 -15.99984375 32.718125 -17.19921875 32.78125 C-19.82421875 32.65625 -19.82421875 32.65625 -21.82421875 30.65625 C-22.3725896 26.63486378 -21.94263355 24.86939664 -19.94921875 21.28125 C-19.24796875 20.415 -18.54671875 19.54875 -17.82421875 18.65625 C-17.16421875 18.65625 -16.50421875 18.65625 -15.82421875 18.65625 C-15.81003906 17.85960938 -15.79585937 17.06296875 -15.78125 16.2421875 C-15.73355469 15.18257812 -15.68585937 14.12296875 -15.63671875 13.03125 C-15.58451172 11.46503906 -15.58451172 11.46503906 -15.53125 9.8671875 C-13.51650868 0.7173678 -8.29598113 -0.225492 0 0 Z M-18.82421875 22.65625 C-19.48421875 24.63625 -20.14421875 26.61625 -20.82421875 28.65625 C-19.83421875 29.64625 -18.84421875 30.63625 -17.82421875 31.65625 C-16.83421875 31.32625 -15.84421875 30.99625 -14.82421875 30.65625 C-14.82421875 28.34625 -14.82421875 26.03625 -14.82421875 23.65625 C-15.81421875 23.98625 -16.80421875 24.31625 -17.82421875 24.65625 C-18.15421875 23.99625 -18.48421875 23.33625 -18.82421875 22.65625 Z " fill="#E7F4E8" transform="translate(29.82421875,6.34375)"/>
<path d="M0 0 C1.11375 0.185625 1.11375 0.185625 2.25 0.375 C1.63125 0.643125 1.0125 0.91125 0.375 1.1875 C-2.0495233 2.33056848 -2.0495233 2.33056848 -3.75 5.375 C-3.44159401 7.52774948 -3.44159401 7.52774948 -2.75 9.375 C-1.43 9.375 -0.11 9.375 1.25 9.375 C1.58 11.685 1.91 13.995 2.25 16.375 C5.0871515 17.57095537 5.0871515 17.57095537 8.25 18.375 C9.24 17.715 10.23 17.055 11.25 16.375 C11.25 17.695 11.25 19.015 11.25 20.375 C8.63058783 22.12127478 7.21175123 22.76222388 4.25 23.375 C3.59 22.385 2.93 21.395 2.25 20.375 C1.92 22.025 1.59 23.675 1.25 25.375 C0.59 24.385 -0.07 23.395 -0.75 22.375 C-1.141875 23.138125 -1.53375 23.90125 -1.9375 24.6875 C-3.98658662 27.72580086 -5.4125017 28.90029145 -8.75 30.375 C-11.9375 30.6875 -11.9375 30.6875 -14.75 30.375 C-16.75 28.375 -16.75 28.375 -17.125 25.625 C-16.66474381 21.63611299 -15.15615735 19.53308152 -12.75 16.375 C-12.193125 16.74625 -11.63625 17.1175 -11.0625 17.5 C-8.69283647 18.67015863 -8.69283647 18.67015863 -6 17.5 C-5.2575 17.12875 -4.515 16.7575 -3.75 16.375 C-4.08 16.045 -4.41 15.715 -4.75 15.375 C-4.79063832 13.70882885 -4.792721 12.04111905 -4.75 10.375 C-5.74 10.375 -6.73 10.375 -7.75 10.375 C-7.02950173 5.69176122 -5.01188102 0.68343832 0 0 Z M-13.75 20.375 C-14.41 22.355 -15.07 24.335 -15.75 26.375 C-14.76 27.365 -13.77 28.355 -12.75 29.375 C-11.76 29.045 -10.77 28.715 -9.75 28.375 C-9.75 26.065 -9.75 23.755 -9.75 21.375 C-10.74 21.705 -11.73 22.035 -12.75 22.375 C-13.08 21.715 -13.41 21.055 -13.75 20.375 Z " fill="#A9BFAA" transform="translate(24.75,8.625)"/>
<path d="M0 0 C3 1 3 1 4.75 3.25 C6.18671298 6.41076857 6.02214896 7.74770785 5 11 C0.60993163 12.07511878 -2.04622243 12.3257941 -5.9375 10.0625 C-6.948125 9.381875 -7.95875 8.70125 -9 8 C-9 5.69 -9 3.38 -9 1 C-8.38125 1.33 -7.7625 1.66 -7.125 2 C-4.09736784 3.42476807 -3.23509555 3.07836518 0 2 C0 1.34 0 0.68 0 0 Z " fill="#C4D6C5" transform="translate(35,27)"/>
<path d="M0 0 C0.928125 0.0825 1.85625 0.165 2.8125 0.25 C4.13479189 2.89458379 3.90927194 4.92761301 3.875 7.875 C3.86597656 8.87789062 3.85695313 9.88078125 3.84765625 10.9140625 C3.83605469 11.68492188 3.82445312 12.45578125 3.8125 13.25 C1.8325 13.91 -0.1475 14.57 -2.1875 15.25 C-2.1875 12.94 -2.1875 10.63 -2.1875 8.25 C-2.8475 8.25 -3.5075 8.25 -4.1875 8.25 C-4.1875 7.26 -4.1875 6.27 -4.1875 5.25 C-4.8475 4.92 -5.5075 4.59 -6.1875 4.25 C-4.36434338 1.00883268 -3.82500054 0.30000004 0 0 Z " fill="#C1D4C2" transform="translate(26.1875,9.75)"/>
<path d="M0 0 C0.99 0.33 1.98 0.66 3 1 C3.33 1.99 3.66 2.98 4 4 C3.38125 4.2475 2.7625 4.495 2.125 4.75 C-0.37776452 6.22221442 -0.9940581 7.31748828 -2 10 C-2 10.66 -2 11.32 -2 12 C0.31 12 2.62 12 5 12 C4.67 12.66 4.34 13.32 4 14 C1.125 14.125 1.125 14.125 -2 14 C-4 12 -4 12 -4.375 9.25 C-3.91474381 5.26111299 -2.40615735 3.15808152 0 0 Z " fill="#174319" transform="translate(12,25)"/>
<path d="M0 0 C2.5 1 2.5 1 5 2 C5.99 1.34 6.98 0.68 8 0 C8 1.32 8 2.64 8 4 C5.38058783 5.74627478 3.96175123 6.38722388 1 7 C0.34 6.01 -0.32 5.02 -1 4 C-1.33 5.65 -1.66 7.3 -2 9 C-2.33 9 -2.66 9 -3 9 C-3.1875 5.625 -3.1875 5.625 -3 2 C-2.01 1.34 -1.02 0.68 0 0 Z " fill="#6C8C6E" transform="translate(28,25)"/>
<path d="M0 0 C1.11375 0.185625 1.11375 0.185625 2.25 0.375 C1.321875 0.7771875 1.321875 0.7771875 0.375 1.1875 C-2.0495233 2.33056848 -2.0495233 2.33056848 -3.75 5.375 C-3.44159401 7.52774948 -3.44159401 7.52774948 -2.75 9.375 C-4.4 9.705 -6.05 10.035 -7.75 10.375 C-7.02950173 5.69176122 -5.01188102 0.68343832 0 0 Z " fill="#779579" transform="translate(24.75,8.625)"/>
<path d="M0 0 C1.98 0.99 1.98 0.99 4 2 C3.67 2.33 3.34 2.66 3 3 C3.99 3.66 4.98 4.32 6 5 C5.67 6.32 5.34 7.64 5 9 C2.525 8.01 2.525 8.01 0 7 C0 4.69 0 2.38 0 0 Z " fill="#A4BBA5" transform="translate(26,28)"/>
<path d="M0 0 C2.125 0.9375 2.125 0.9375 4 2 C4 2.99 4 3.98 4 5 C3.01 4.67 2.02 4.34 1 4 C0.01 4 -0.98 4 -2 4 C-2 3.01 -2 2.02 -2 1 C-1.34 0.67 -0.68 0.34 0 0 Z " fill="#68896A" transform="translate(19,25)"/>
<path d="M0 0 C0.33 0.99 0.66 1.98 1 3 C-0.32 3.99 -1.64 4.98 -3 6 C-3.66 5.67 -4.32 5.34 -5 5 C-4 2 -4 2 -1.9375 0.8125 C-1.298125 0.544375 -0.65875 0.27625 0 0 Z " fill="#7A987C" transform="translate(22,31)"/>
<path d="M0 0 C0.66 0 1.32 0 2 0 C2 1.98 2 3.96 2 6 C1.01 6 0.02 6 -1 6 C-1.042721 4.33388095 -1.04063832 2.66617115 -1 1 C-0.67 0.67 -0.34 0.34 0 0 Z " fill="#9FB7A1" transform="translate(21,18)"/>
</svg>
